<svg xmlns="http://www.w3.org/2000/svg" viewBox="228 138 665 855">
<path d="M0 0 C172.92 0 345.84 0 524 0 C524 178.53 524 357.06 524 541 C437.54 541 351.08 541 262 541 C262 536.05 262 531.1 262 526 C343.18 526 424.36 526 508 526 C508 357.37 508 188.74 508 15 C265.45 15.495 265.45 15.495 18 16 C17.67 79.36 17.34 142.72 17 208 C16.67 237.7 16.34 267.4 16 298 C10.72 298 5.44 298 0 298 C-0.0692912 241.49051076 0.09638721 184.98375339 0.38884032 128.47503269 C0.43360736 119.74677435 0.47324979 111.01849741 0.51199192 102.29021055 C0.55028566 93.7169335 0.59218961 85.14367892 0.63687855 76.57043284 C0.66315175 71.51753627 0.6880096 66.46464338 0.70907402 61.41172218 C0.72873233 56.72151737 0.75290169 52.03135691 0.78049088 47.34119225 C0.78977237 45.63525059 0.79747862 43.92929946 0.80341911 42.2233429 C0.83614425 33.10748743 1.04078353 24.07628428 2 15 C1.34 15 0.68 15 0 15 C0 10.05 0 5.1 0 0 Z " fill="#ffffff" transform="translate(278,149)"/>
<path d="M0 0 C11.55 0 23.1 0 35 0 C35 98.34 35 196.68 35 298 C91.81941528 296.16711564 144.26062799 288.03535424 199.27514648 274.50537109 C200.22814636 274.27240326 201.18114624 274.03943542 202.1630249 273.79940796 C203.95272552 273.36129074 205.74148597 272.91930838 207.52911377 272.47280884 C208.32541199 272.27811005 209.12171021 272.08341125 209.94213867 271.8828125 C210.6328093 271.71152832 211.32347992 271.54024414 212.03507996 271.36376953 C214 271 214 271 218 271 C218 282.22 218 293.44 218 305 C146.06 305 74.12 305 0 305 C0 204.35 0 103.7 0 0 Z " fill="#ffffff" transform="translate(510,258)"/>
<path d="M0 0 C0.74185547 -0.020625 1.48371094 -0.04125 2.24804688 -0.0625 C4.40234375 -0.078125 4.40234375 -0.078125 8.0625 0.25 C10.34708499 3.67687748 10.30701452 4.88940311 10.28955078 8.91479492 C10.28930908 10.09199097 10.28906738 11.26918701 10.28881836 12.48205566 C10.27347046 14.33752014 10.27347046 14.33752014 10.2578125 16.23046875 C10.25579834 17.36762329 10.25378418 18.50477783 10.25170898 19.6763916 C10.24123353 23.93013535 10.21331102 28.18382166 10.1875 32.4375 C10.125625 46.6996875 10.125625 46.6996875 10.0625 61.25 C32.1725 61.25 54.2825 61.25 77.0625 61.25 C76.98330644 41.92304013 76.98330644 41.92304013 76.88232422 22.59619141 C76.87648547 20.18131689 76.87138846 17.76644042 76.8671875 15.3515625 C76.85695557 14.08787842 76.84672363 12.82419434 76.83618164 11.5222168 C76.83581909 9.72578735 76.83581909 9.72578735 76.83544922 7.89306641 C76.831008 6.84937897 76.82656677 5.80569153 76.82199097 4.7303772 C77.0625 2.25 77.0625 2.25 79.0625 0.25 C81.60785141 0.05150929 84.01966759 -0.02851775 86.5625 0 C87.25214844 -0.00773437 87.94179688 -0.01546875 88.65234375 -0.0234375 C93.80916707 -0.00333293 93.80916707 -0.00333293 96.0625 2.25 C96.31418228 4.7394104 96.31418228 4.7394104 96.31646729 7.94384766 C96.32210693 9.15534485 96.32774658 10.36684204 96.33355713 11.61505127 C96.32966818 12.96472227 96.32557182 14.31439269 96.32128906 15.6640625 C96.32399793 17.07981547 96.32755827 18.49556704 96.33190918 19.91131592 C96.34104793 23.76248359 96.33748285 27.61354444 96.33115101 31.46471405 C96.32609868 35.48901158 96.33078032 39.51329978 96.33392334 43.53759766 C96.33756523 50.29656624 96.33275806 57.05549116 96.32324219 63.81445312 C96.3123572 71.63636334 96.31588262 79.4581693 96.326895 87.28007698 C96.33596154 93.98753313 96.33725626 100.69495784 96.33201766 107.40241814 C96.32889446 111.41211532 96.32849816 115.42176346 96.33509064 119.43145752 C96.3408543 123.20054267 96.33688531 126.969493 96.32530212 130.73856354 C96.32265027 132.12452215 96.32342955 133.51049205 96.32782745 134.89644623 C96.33326341 136.7830109 96.32524939 138.66960028 96.31646729 140.55615234 C96.31571323 141.61361664 96.31495918 142.67108093 96.31418228 143.7605896 C96.0625 146.25 96.0625 146.25 94.0625 148.25 C91.51714859 148.44849071 89.10533241 148.52851775 86.5625 148.5 C85.87285156 148.50773438 85.18320312 148.51546875 84.47265625 148.5234375 C79.31583293 148.50333293 79.31583293 148.50333293 77.0625 146.25 C76.82199097 143.427948 76.82199097 143.427948 76.83544922 139.78076172 C76.83515717 139.11722687 76.83486511 138.45369202 76.83456421 137.77005005 C76.83595944 135.57313028 76.85152933 133.37654814 76.8671875 131.1796875 C76.87091695 129.65797104 76.87376424 128.13625219 76.87576294 126.61453247 C76.88340477 122.60643908 76.90305787 118.5984903 76.9251709 114.5904541 C76.94921151 109.78304533 76.9584077 104.97558825 76.97007751 100.1681366 C76.98948206 92.86199045 77.02780055 85.55616167 77.0625 78.25 C54.9525 78.25 32.8425 78.25 10.0625 78.25 C10.14167409 100.16472196 10.14167409 100.16472196 10.24267578 122.0793457 C10.24851515 124.81982264 10.25361202 127.56030131 10.2578125 130.30078125 C10.26303925 131.01356735 10.26826599 131.72635345 10.27365112 132.46073914 C10.28827643 134.56026487 10.2903125 136.65946421 10.28955078 138.7590332 C10.293992 139.94261917 10.29843323 141.12620514 10.30300903 142.34565735 C10.0625 145.25 10.0625 145.25 8.0625 148.25 C5.29058898 148.49849576 2.76362612 148.57683409 0 148.5 C-1.11858398 148.49226563 -1.11858398 148.49226563 -2.25976562 148.484375 C-7.78339574 148.40410426 -7.78339574 148.40410426 -8.9375 147.25 C-9.03623281 145.36669453 -9.06382187 143.47964162 -9.06448364 141.59375 C-9.06730347 140.365354 -9.07012329 139.13695801 -9.07302856 137.87133789 C-9.07108397 136.49755845 -9.06903578 135.12377915 -9.06689453 133.75 C-9.06824853 132.31306921 -9.07002846 130.87613877 -9.07220459 129.43920898 C-9.07677906 125.52609411 -9.07498931 121.61300549 -9.0718255 117.69989014 C-9.06930197 113.6137281 -9.07163942 109.52756837 -9.07321167 105.44140625 C-9.07503339 98.57812088 -9.07262701 91.71484625 -9.06787109 84.8515625 C-9.06242847 76.90527994 -9.06419112 68.95902303 -9.0696975 61.01274109 C-9.07422857 54.20256836 -9.07487921 47.39240337 -9.07225883 40.58222961 C-9.07069602 36.50940531 -9.07050239 32.43659307 -9.07379532 28.36376953 C-9.07667395 24.53564243 -9.07469849 20.70754855 -9.06890106 16.87942505 C-9.06757342 15.47046972 -9.06796765 14.06151162 -9.07016373 12.65255737 C-9.07287504 10.73712257 -9.06888058 8.82168168 -9.06448364 6.90625 C-9.06410662 5.83181641 -9.06372959 4.75738281 -9.06334114 3.65039062 C-8.79214737 -1.52256771 -4.10205497 0.02836339 0 0 Z " fill="#ffffff" transform="translate(629.9375,340.75)"/>
<path d="M0 0 C13.26459209 -0.04626195 26.52916512 -0.08183788 39.79382133 -0.10362434 C45.95258297 -0.1140787 52.11128957 -0.12826797 58.27001953 -0.15087891 C64.20924549 -0.17254846 70.14841839 -0.18455617 76.08768082 -0.18975449 C78.35798097 -0.19346086 80.62827809 -0.20069805 82.89855576 -0.21146011 C86.06899124 -0.22589677 89.23920511 -0.22798123 92.40966797 -0.22705078 C93.35625275 -0.23424133 94.30283752 -0.24143188 95.27810669 -0.24884033 C96.13909973 -0.246091 97.00009277 -0.24334167 97.88717651 -0.24050903 C98.637516 -0.24235262 99.38785549 -0.24419621 100.16093254 -0.24609566 C102 0 102 0 104 2 C104.265625 4.49609375 104.265625 4.49609375 104.25 7.4375 C104.25773437 8.88962891 104.25773437 8.88962891 104.265625 10.37109375 C104 13 104 13 102 16 C100.20297241 16.36076355 100.20297241 16.36076355 98.00927734 16.34057617 C96.77822769 16.34023628 96.77822769 16.34023628 95.52230835 16.33988953 C94.63580597 16.32440567 93.74930359 16.30892181 92.8359375 16.29296875 C91.92872955 16.28872391 91.02152161 16.28447906 90.08682251 16.28010559 C87.18258268 16.26328133 84.2790309 16.2256226 81.375 16.1875 C79.40886417 16.17245799 77.44271749 16.15876875 75.4765625 16.14648438 C70.65077561 16.11336557 65.82550455 16.06155786 61 16 C61.00184359 16.66814161 61.00368717 17.33628323 61.00558662 18.02467155 C61.04971199 34.26512582 61.08283037 50.50556115 61.10362434 66.74606133 C61.11394684 74.59977239 61.12802571 82.45344349 61.15087891 90.30712891 C61.17078306 97.15059915 61.18370935 103.99404046 61.18817699 110.83753884 C61.19078943 114.46275228 61.19694987 118.08788295 61.21146011 121.71306992 C61.22750873 125.75520282 61.22798161 129.79719084 61.22705078 133.83935547 C61.23424133 135.04776093 61.24143188 136.25616638 61.24884033 137.50119019 C61.246091 138.59777954 61.24334167 139.6943689 61.24050903 140.82418823 C61.24235262 141.78100935 61.24419621 142.73783047 61.24609566 143.72364616 C61 146 61 146 59 148 C56.25514407 148.14507695 53.61519457 148.18652423 50.875 148.125 C50.12089844 148.11597656 49.36679687 148.10695313 48.58984375 148.09765625 C46.72642746 148.0740687 44.86317407 148.03819719 43 148 C41.72596078 145.45192156 41.87699651 143.67762173 41.87974548 140.82418823 C41.87837082 139.72759888 41.87699615 138.63100952 41.87557983 137.50119019 C41.88097275 135.688582 41.88097275 135.688582 41.88647461 133.83935547 C41.88632858 132.57109924 41.88618256 131.30284302 41.8860321 129.99615479 C41.88574452 126.51289915 41.891635 123.02967777 41.89860606 119.54643011 C41.90484603 115.90824398 41.90544391 112.27005711 41.90663147 108.63186646 C41.90974288 101.73997823 41.91795372 94.84810582 41.92798096 87.95622456 C41.93914798 80.11110593 41.94465403 72.26598656 41.94967639 64.42086196 C41.96013648 48.28056537 41.97773226 32.1402847 42 16 C40.15269287 16.01571045 40.15269287 16.01571045 38.26806641 16.03173828 C33.70966485 16.06787089 29.15127602 16.09087585 24.59277344 16.10986328 C22.61781691 16.11993627 20.64287534 16.13359521 18.66796875 16.15087891 C15.83329582 16.17507039 12.99881962 16.18646991 10.1640625 16.1953125 C9.27756012 16.20563507 8.39105774 16.21595764 7.47769165 16.22659302 C5.31714048 16.2269907 3.15706282 16.12272534 1 16 C-1 14 -1 14 -1.23046875 11.25 C-1.21628906 10.1775 -1.20210938 9.105 -1.1875 8 C-1.18105469 6.9275 -1.17460937 5.855 -1.16796875 4.75 C-1 2 -1 2 0 0 Z " fill="#ffffff" transform="translate(365,341)"/>
<path d="M0 0 C3.3 0 6.6 0 10 0 C12.00332269 6.26219297 12.97706867 12.57278909 13.9453125 19.06640625 C14.12005096 20.21866196 14.29478943 21.37091766 14.474823 22.55809021 C14.84175938 24.98589585 15.20638824 27.41405123 15.56884766 29.8425293 C16.12377072 33.55427764 16.68833186 37.26447083 17.25390625 40.97460938 C17.60995412 43.33845451 17.9654419 45.70238409 18.3203125 48.06640625 C18.48902863 49.17278946 18.65774475 50.27917267 18.83157349 51.41908264 C18.98528412 52.45713547 19.13899475 53.49518829 19.29736328 54.56469727 C19.43345001 55.47179947 19.56953674 56.37890167 19.70974731 57.31349182 C20.02457615 60.22747084 20.04834547 63.07130288 20 66 C20.66 66 21.32 66 22 66 C22.12906738 64.99678711 22.25813477 63.99357422 22.39111328 62.95996094 C23.24474038 57.00493575 24.8363535 51.21230523 26.32861328 45.39208984 C26.87645323 43.24430267 27.40900192 41.09306422 27.94140625 38.94140625 C28.29073272 37.57007425 28.64096156 36.19897174 28.9921875 34.828125 C29.30526855 33.5896582 29.61834961 32.35119141 29.94091797 31.07519531 C30.94802217 28.15092503 31.50985242 26.76741656 34 25 C36.8125 24.56640625 36.8125 24.56640625 40 24.5625 C41.5778125 24.53349609 41.5778125 24.53349609 43.1875 24.50390625 C46 25 46 25 47.53662109 26.54614258 C49.46689086 29.78290291 50.32568765 33.1350221 51.2265625 36.7578125 C51.41971039 37.50207489 51.61285828 38.24633728 51.81185913 39.01315308 C52.42488118 41.38164313 53.0254031 43.75307934 53.625 46.125 C54.23412698 48.50338146 54.84581619 50.88107724 55.45956421 53.25827026 C55.84008607 54.73541008 56.21748687 56.21335813 56.59146118 57.69216919 C57.53103878 61.43990739 57.53103878 61.43990739 59 65 C59.10831146 64.27416718 59.21662292 63.54833435 59.32821655 62.80050659 C60.352369 55.9438405 61.38168641 49.08796737 62.41673851 42.23293877 C62.9486251 38.70909499 63.47854499 35.18497927 64.00390625 31.66015625 C64.60866041 27.6032605 65.22208178 23.54771613 65.8359375 19.4921875 C66.02247894 18.23260223 66.20902039 16.97301697 66.4012146 15.67526245 C66.58125031 14.49449127 66.76128601 13.31372009 66.94677734 12.09716797 C67.10222015 11.06236298 67.25766296 10.02755798 67.41781616 8.96139526 C68.02804187 5.85735937 68.9381264 2.97693008 70 0 C72.97 0 75.94 0 79 0 C80.21390674 3.64172021 79.75615865 5.68667857 79.15136719 9.47167969 C79.04904282 10.12411652 78.94671844 10.77655334 78.84129333 11.44876099 C78.50054344 13.60771505 78.14913123 15.76477061 77.796875 17.921875 C77.55564024 19.42533542 77.31478057 20.92885607 77.07427979 22.43243408 C76.56785697 25.58726851 76.05600736 28.74116452 75.54052734 31.89453125 C74.88272493 35.9220129 74.23965276 39.95168307 73.60087204 43.9822197 C73.10630733 47.09064924 72.60317051 50.19764623 72.09757233 53.3042984 C71.85719805 54.78849912 71.61960173 56.27315266 71.38491058 57.75826263 C71.05412049 59.84396058 70.71161753 61.92742166 70.36621094 64.01074219 C70.17444275 65.19416199 69.98267456 66.37758179 69.78509521 67.59686279 C68.9150524 71.36822074 67.61939892 74.49338681 66 78 C64.08458862 78.10841951 62.16740227 78.18578079 60.25 78.25 C59.18265625 78.29640625 58.1153125 78.3428125 57.015625 78.390625 C53.1397265 77.88856561 52.39796496 77.06274732 50 74 C48.86401746 71.16585345 48.1458925 68.25942064 47.421875 65.296875 C47.20557434 64.45908508 46.98927368 63.62129517 46.76641846 62.75811768 C46.08122316 60.09188047 45.41540537 57.42123717 44.75 54.75 C44.28772971 52.93717532 43.82420204 51.12467078 43.359375 49.3125 C42.22498084 44.87857725 41.10793531 40.44060473 40 36 C39.7733667 36.82612793 39.5467334 37.65225586 39.31323242 38.50341797 C38.45870298 41.61614439 37.60310721 44.72857532 36.74682617 47.84082031 C36.3788964 49.17892194 36.01137197 50.51713509 35.64428711 51.85546875 C34.44140225 56.24033687 33.22231311 60.62049873 32 65 C31.72752441 66.01352539 31.45504883 67.02705078 31.17431641 68.07128906 C30.9272998 68.9578418 30.6802832 69.84439453 30.42578125 70.7578125 C30.21993408 71.51465332 30.01408691 72.27149414 29.80200195 73.05126953 C28.87279949 75.30907594 27.90975945 76.48844945 26 78 C23.15234375 78.36328125 23.15234375 78.36328125 19.9375 78.3125 C18.87402344 78.30863281 17.81054688 78.30476562 16.71484375 78.30078125 C14 78 14 78 12 76 C11.48198962 73.83513903 11.06787377 71.64510492 10.703125 69.44921875 C10.58891205 68.77494843 10.4746991 68.1006781 10.35702515 67.40597534 C9.98007475 65.16773117 9.61487675 62.92774155 9.25 60.6875 C8.99065813 59.12937817 8.73072084 57.57135535 8.47021484 56.01342773 C7.77986567 51.87046444 7.10033509 47.7257923 6.42297363 43.58068848 C5.85443461 40.11186205 5.27852007 36.64427449 4.70288086 33.17662048 C4.14164802 29.79089721 3.58418725 26.40456289 3.02819824 23.01797485 C2.76008903 21.38519138 2.49129371 19.75252042 2.22180176 18.1199646 C1.84502534 15.8318121 1.47262306 13.54299172 1.1015625 11.25390625 C0.98936371 10.57625214 0.87716492 9.89859802 0.76156616 9.20040894 C0.25730118 6.06070944 0 3.19643863 0 0 Z " fill="#ffffff" transform="translate(644,717)"/>
<path d="M0 0 C5.96818888 4.53068963 9.62872446 11.50786961 11.06640625 18.81640625 C11.19598608 21.30594761 11.27796811 23.76722684 11.3046875 26.2578125 C11.31275925 26.98072983 11.32083099 27.70364716 11.32914734 28.44847107 C11.34295434 29.979051 11.35369158 31.50966129 11.36157227 33.0402832 C11.37303606 34.58692616 11.39339825 36.13353133 11.4230957 37.67993164 C11.62709637 48.31873749 11.43457773 58.33904299 4.75390625 67.25390625 C-3.13812667 74.77886788 -11.2820952 75.28197285 -21.71875 75.0859375 C-29.07662311 74.75672255 -33.75270694 72.37299819 -38.80859375 67.06640625 C-46.24514014 57.78793749 -46.12915401 47.0272275 -46.18359375 35.62890625 C-46.20421875 34.56865234 -46.22484375 33.50839844 -46.24609375 32.41601562 C-46.29531031 22.32046929 -45.19433045 10.52342936 -37.93359375 2.81640625 C-26.89816389 -5.49198163 -12.14559635 -7.43457716 0 0 Z M-29.5390625 9.14453125 C-35.73271327 16.04654677 -35.30623181 24.26690011 -35.30419922 32.96435547 C-35.308554 35.04739332 -35.34487426 37.12827607 -35.3828125 39.2109375 C-35.44881444 46.95664972 -35.09587405 54.06134482 -30.93359375 60.81640625 C-24.96601299 65.80968811 -19.45849895 66.46206894 -11.93359375 65.81640625 C-7.19157561 64.14791839 -4.60922444 62.06051011 -1.93359375 57.81640625 C1.28314379 50.73538127 1.49383636 43.9937375 1.37890625 36.31640625 C1.38212891 35.24003906 1.38535156 34.16367187 1.38867188 33.0546875 C1.32909143 24.16095246 0.96642572 15.89642962 -4.93359375 8.81640625 C-11.80020054 3.12693205 -22.70288153 3.48929638 -29.5390625 9.14453125 Z " fill="#ffffff" transform="translate(788.93359375,720.18359375)"/>
<path d="M0 0 C3.3 0 6.6 0 10 0 C10 10.56 10 21.12 10 32 C21.55 32 33.1 32 45 32 C45 21.44 45 10.88 45 0 C48.3 0 51.6 0 55 0 C55 25.41 55 50.82 55 77 C51.7 77 48.4 77 45 77 C45 65.12 45 53.24 45 41 C33.45 41 21.9 41 10 41 C10 52.88 10 64.76 10 77 C6.7 77 3.4 77 0 77 C0 51.59 0 26.18 0 0 Z " fill="#ffffff" transform="translate(317,717)"/>
<path d="M0 0 C6.4341741 6.07671998 8.03793622 17.82067035 10.359375 26.05078125 C10.734523 27.369805 11.10995566 28.68874781 11.48565674 30.00761414 C12.2656561 32.7505794 13.04169099 35.49462682 13.81494141 38.23950195 C14.80426194 41.74984566 15.80444904 45.25698761 16.80767441 48.7633791 C17.58271116 51.47728671 18.35158567 54.19291082 19.11865997 56.9090786 C19.66230049 58.82945981 20.21144231 60.74828092 20.76068115 62.66706848 C21.08812317 63.83565903 21.41556519 65.00424957 21.75292969 66.20825195 C22.18783722 67.74519463 22.18783722 67.74519463 22.63153076 69.31318665 C23.25 72.125 23.25 72.125 23.25 77.125 C19.95 77.125 16.65 77.125 13.25 77.125 C12.2657303 74.08490093 11.28744835 71.04308821 10.3125 68 C10.03470703 67.1440625 9.75691406 66.288125 9.47070312 65.40625 C9.20322266 64.56835938 8.93574219 63.73046875 8.66015625 62.8671875 C8.41402588 62.1026123 8.16789551 61.33803711 7.91430664 60.55029297 C7.15804705 57.78929232 6.72062503 54.9487502 6.25 52.125 C-2.33 52.455 -10.91 52.785 -19.75 53.125 C-22.06 61.045 -24.37 68.965 -26.75 77.125 C-30.05 77.125 -33.35 77.125 -36.75 77.125 C-36.16482874 68.99663993 -34.10967182 61.4575666 -31.890625 53.640625 C-31.50032041 52.25303221 -31.11016603 50.86539716 -30.72015381 49.47772217 C-29.90495099 46.58503145 -29.08366611 43.69414513 -28.25878906 40.80419922 C-27.20590336 37.11124646 -26.17511498 33.41251126 -25.14957047 29.71188736 C-24.35265216 26.85012502 -23.54077438 23.99276511 -22.72472382 21.13640594 C-22.33822626 19.77444366 -21.95710009 18.41094455 -21.58161163 17.04590607 C-21.05486839 15.1371872 -20.50491912 13.234919 -19.95410156 11.33300781 C-19.64845276 10.25206848 -19.34280396 9.17112915 -19.02789307 8.05743408 C-15.33599609 -0.41451463 -8.44816022 -2.68805098 0 0 Z M-7.75 8.125 C-10.4653162 14.959242 -12.47835833 21.91600548 -14.4375 29 C-14.75783203 30.13953125 -15.07816406 31.2790625 -15.40820312 32.453125 C-17.06758958 37.71208014 -17.06758958 37.71208014 -17.75 43.125 C-10.49 43.125 -3.23 43.125 4.25 43.125 C3.14922371 38.97824 2.04449354 34.83260054 0.9375 30.6875 C0.4744043 28.94049805 0.4744043 28.94049805 0.00195312 27.15820312 C-1.71774144 20.73197605 -3.56574381 14.40893703 -5.75 8.125 C-6.41 8.125 -7.07 8.125 -7.75 8.125 Z " fill="#ffffff" transform="translate(605.75,716.875)"/>
<path d="M0 0 C1.85915039 -0.02416992 1.85915039 -0.02416992 3.75585938 -0.04882812 C5.52606445 -0.04979492 5.52606445 -0.04979492 7.33203125 -0.05078125 C8.40815674 -0.05376221 9.48428223 -0.05674316 10.59301758 -0.05981445 C11.87728638 0.1244812 11.87728638 0.1244812 13.1875 0.3125 C15.1875 3.3125 15.1875 3.3125 14.8125 6.5 C14.60625 7.428125 14.4 8.35625 14.1875 9.3125 C13.56818604 9.33231934 12.94887207 9.35213867 12.31079102 9.37255859 C9.45682611 9.46885231 6.60349143 9.57810097 3.75 9.6875 C2.77611328 9.7184375 1.80222656 9.749375 0.79882812 9.78125 C-5.30308795 10.02614295 -10.92387875 10.64715238 -16.8125 12.3125 C-17.98719444 14.66188888 -18.01284889 16.26323205 -18.12890625 18.8828125 C-18.16701416 19.68992676 -18.20512207 20.49704102 -18.24438477 21.32861328 C-18.28748779 22.3545459 -18.33059082 23.38047852 -18.375 24.4375 C-18.519375 27.69625 -18.66375 30.955 -18.8125 34.3125 C-7.9225 34.3125 2.9675 34.3125 14.1875 34.3125 C15.1875 40.3125 15.1875 40.3125 13.1875 43.3125 C10.70409097 43.57977014 8.47277932 43.66116334 5.9921875 43.60546875 C5.28474396 43.60122391 4.57730042 43.59697906 3.84841919 43.59260559 C1.58606095 43.57579547 -0.67541048 43.53814128 -2.9375 43.5 C-4.47003923 43.48495607 -6.0025924 43.47126716 -7.53515625 43.45898438 C-11.29461318 43.42588462 -15.05340618 43.37408825 -18.8125 43.3125 C-18.76073756 47.08446465 -18.66568888 50.85411932 -18.5625 54.625 C-18.54832031 55.69685547 -18.53414063 56.76871094 -18.51953125 57.87304688 C-18.48730469 58.90107422 -18.45507812 59.92910156 -18.421875 60.98828125 C-18.40092773 61.93614502 -18.37998047 62.88400879 -18.35839844 63.8605957 C-18.00553463 66.39742746 -18.00553463 66.39742746 -16.18164062 68.11328125 C-13.10587566 69.67018124 -10.7398687 69.74596889 -7.296875 69.82421875 C-5.42128906 69.87739258 -5.42128906 69.87739258 -3.5078125 69.93164062 C-2.20585937 69.95419922 -0.90390625 69.97675781 0.4375 70 C1.75492187 70.03416016 3.07234375 70.06832031 4.4296875 70.10351562 C7.68220678 70.18600706 10.93445596 70.2551567 14.1875 70.3125 C15.3125 77.0625 15.3125 77.0625 14.1875 79.3125 C9.91917019 79.41215569 5.65147531 79.48433391 1.38232422 79.53222656 C-0.06668917 79.55221295 -1.51562325 79.57941197 -2.96435547 79.61425781 C-18.05550725 79.96787543 -18.05550725 79.96787543 -24.8125 75.3125 C-28.78989683 70.41724236 -29.92433417 66.57034426 -29.97363281 60.39550781 C-29.98324036 59.42059387 -29.9928479 58.44567993 -30.00274658 57.44122314 C-30.00699646 56.39327576 -30.01124634 55.34532837 -30.015625 54.265625 C-30.02132507 53.18045593 -30.02702515 52.09528687 -30.03289795 50.97723389 C-30.04234084 48.68079603 -30.04887911 46.38434466 -30.05273438 44.08789062 C-30.06242493 40.58960056 -30.09344959 37.09190186 -30.125 33.59375 C-30.13153196 31.35937848 -30.13678167 29.12500276 -30.140625 26.890625 C-30.1591452 25.3308493 -30.1591452 25.3308493 -30.17803955 23.73956299 C-30.15503611 16.17019669 -29.51109579 10.13375923 -24.0625 4.4375 C-16.50355602 -0.50488645 -8.78349309 -0.02319993 0 0 Z " fill="#ffffff" transform="translate(429.8125,715.6875)"/>
<path d="M0 0 C7.67211202 -0.02526605 15.3442134 -0.04283123 23.01635742 -0.05493164 C25.62866619 -0.05997377 28.24097211 -0.06680725 30.85327148 -0.07543945 C34.59880268 -0.08751036 38.34429672 -0.09322935 42.08984375 -0.09765625 C43.26586655 -0.10281754 44.44188934 -0.10797882 45.65354919 -0.11329651 C46.73459427 -0.11337204 47.81563934 -0.11344757 48.92944336 -0.11352539 C49.88652695 -0.115746 50.84361053 -0.11796661 51.82969666 -0.12025452 C54 0 54 0 55 1 C55.04092937 3.33297433 55.04241723 5.66705225 55 8 C52.59940183 9.20029908 51.10639351 9.11459743 48.4296875 9.09765625 C47.53378906 9.09443359 46.63789063 9.09121094 45.71484375 9.08789062 C44.77769531 9.07951172 43.84054687 9.07113281 42.875 9.0625 C41.93011719 9.05798828 40.98523438 9.05347656 40.01171875 9.04882812 C37.67441613 9.03702357 35.33723939 9.02055759 33 9 C33.00222061 9.83716049 33.00444122 10.67432098 33.00672913 11.53684998 C33.02673032 19.40967414 33.04197325 27.28248983 33.05181217 35.15533352 C33.05704041 39.20325742 33.06413699 43.25116041 33.07543945 47.29907227 C33.08627043 51.20235971 33.09227728 55.10562699 33.09487724 59.0089283 C33.09673111 60.50133647 33.100351 61.99374348 33.10573006 63.48614311 C33.11294331 65.56948139 33.11399083 67.65273531 33.11352539 69.73608398 C33.115746 70.92411118 33.11796661 72.11213837 33.12025452 73.33616638 C33 76 33 76 32 77 C30.50261876 77.0979057 29.00057108 77.12974864 27.5 77.125 C26.6853125 77.12757813 25.870625 77.13015625 25.03125 77.1328125 C23 77 23 77 22 76 C21.90582227 73.91380978 21.88257122 71.82439523 21.88647461 69.73608398 C21.88632858 69.08244873 21.88618256 68.42881348 21.8860321 67.75537109 C21.88673117 65.58557872 21.89452322 63.41587121 21.90234375 61.24609375 C21.90420795 59.74536689 21.90563184 58.24463943 21.90663147 56.74391174 C21.91045648 52.78681774 21.9202866 48.82976022 21.93133545 44.87268066 C21.94154994 40.83765151 21.94612917 36.80261647 21.95117188 32.76757812 C21.96190889 24.84503531 21.9789851 16.92252219 22 9 C21.40461426 9.00523682 20.80922852 9.01047363 20.19580078 9.01586914 C17.50554453 9.03661999 14.81530511 9.04965407 12.125 9.0625 C11.18785156 9.07087891 10.25070313 9.07925781 9.28515625 9.08789062 C7.94130859 9.09272461 7.94130859 9.09272461 6.5703125 9.09765625 C5.74289551 9.10289307 4.91547852 9.10812988 4.06298828 9.11352539 C2 9 2 9 0 8 C0 5.36 0 2.72 0 0 Z " fill="#ffffff" transform="translate(239,717)"/>
<path d="M0 0 C3.3 0 6.6 0 10 0 C10.01213028 1.1484565 10.01213028 1.1484565 10.02450562 2.32011414 C10.10252708 9.54433234 10.18984032 16.76835077 10.28752708 23.99232769 C10.33741983 27.70602895 10.38375024 31.41970273 10.421875 35.13354492 C10.45881687 38.71928456 10.50520049 42.30479034 10.55806351 45.89032936 C10.57656029 47.25657857 10.5916856 48.62287782 10.60334396 49.9892025 C10.62028657 51.90655783 10.65045399 53.82378237 10.68115234 55.7409668 C10.69447601 56.83128708 10.70779968 57.92160736 10.7215271 59.04496765 C11.01018751 62.10810539 11.54370571 64.29175853 13 67 C16.3021228 68.1007076 18.94083279 68.20627072 22.41796875 68.31640625 C23.67158203 68.35830078 24.92519531 68.40019531 26.21679688 68.44335938 C27.52712891 68.48267578 28.83746094 68.52199219 30.1875 68.5625 C31.52279978 68.60570992 32.85808652 68.649325 34.19335938 68.69335938 C37.46213297 68.79956502 40.73098333 68.90160997 44 69 C44 71.97 44 74.94 44 78 C39.55260587 78.07449251 35.1055481 78.12876257 30.65771484 78.16479492 C29.14658273 78.17982543 27.63549382 78.20025564 26.12451172 78.22631836 C23.94487813 78.26295689 21.76582425 78.27978338 19.5859375 78.29296875 C18.2767334 78.3086792 16.9675293 78.32438965 15.61865234 78.34057617 C11.09522665 77.91484558 7.75959673 76.56733675 4.35546875 73.53515625 C0.26558473 68.37834597 -0.12608081 65.05769644 -0.11352539 58.57910156 C-0.11344986 57.27805481 -0.11337433 55.97700806 -0.11329651 54.63653564 C-0.10819024 53.22123171 -0.10297425 51.80592816 -0.09765625 50.390625 C-0.09579035 48.93902637 -0.09436726 47.48742712 -0.09336853 46.03582764 C-0.08955688 42.22180431 -0.07973815 38.40781927 -0.06866455 34.59381104 C-0.05842135 30.69926471 -0.05386468 26.80471217 -0.04882812 22.91015625 C-0.03811465 15.27342007 -0.02105449 7.63671541 0 0 Z " fill="#ffffff" transform="translate(508,717)"/>
<path d="M0 0 C2.64 0 5.28 0 8 0 C8.2673999 0.57032959 8.5347998 1.14065918 8.81030273 1.72827148 C10.01714167 4.29906662 11.2272751 6.86829722 12.4375 9.4375 C12.85837891 10.33533203 13.27925781 11.23316406 13.71289062 12.15820312 C14.11572266 13.01220703 14.51855469 13.86621094 14.93359375 14.74609375 C15.30540771 15.53685303 15.67722168 16.3276123 16.06030273 17.14233398 C16.86104789 18.96497994 16.86104789 18.96497994 18 20 C18.2673999 19.42967041 18.5347998 18.85934082 18.81030273 18.27172852 C20.01714167 15.70093338 21.2272751 13.13170278 22.4375 10.5625 C23.06881836 9.21575195 23.06881836 9.21575195 23.71289062 7.84179688 C24.11572266 6.98779297 24.51855469 6.13378906 24.93359375 5.25390625 C25.30540771 4.46314697 25.67722168 3.6723877 26.06030273 2.85766602 C27 1 27 1 28 0 C30.64 0 33.28 0 36 0 C36 14.52 36 29.04 36 44 C34.02 44 32.04 44 30 44 C29.505 28.655 29.505 28.655 29 13 C26.69 17.62 24.38 22.24 22 27 C19.36 27 16.72 27 14 27 C11.69 22.38 9.38 17.76 7 13 C6.67 23.23 6.34 33.46 6 44 C4.02 44 2.04 44 0 44 C0 29.48 0 14.96 0 0 Z " fill="#ffffff" transform="translate(438,836)"/>
<path d="M0 0 C2.5 0.125 2.5 0.125 3.5 1.125 C3.57330331 3.98969325 3.59217831 6.82393674 3.5625 9.6875 C3.541875 12.471875 3.52125 15.25625 3.5 18.125 C9.77 18.125 16.04 18.125 22.5 18.125 C22.5 12.185 22.5 6.245 22.5 0.125 C24.48 0.125 26.46 0.125 28.5 0.125 C28.5 14.645 28.5 29.165 28.5 44.125 C26.52 44.125 24.54 44.125 22.5 44.125 C22.5 37.195 22.5 30.265 22.5 23.125 C16.23 23.125 9.96 23.125 3.5 23.125 C3.51160156 24.55714844 3.52320313 25.98929688 3.53515625 27.46484375 C3.54453255 29.33072787 3.55363292 31.19661339 3.5625 33.0625 C3.57087891 34.00802734 3.57925781 34.95355469 3.58789062 35.92773438 C3.59111328 36.82685547 3.59433594 37.72597656 3.59765625 38.65234375 C3.60289307 39.48499756 3.60812988 40.31765137 3.61352539 41.17553711 C3.5 43.125 3.5 43.125 2.5 44.125 C0.50041636 44.16580783 -1.50045254 44.16754356 -3.5 44.125 C-3.52464513 38.0194529 -3.54283371 31.91393449 -3.55493164 25.80834961 C-3.55997288 23.72956844 -3.56680574 21.65079084 -3.57543945 19.57202148 C-3.58751422 16.59097414 -3.59323024 13.60997351 -3.59765625 10.62890625 C-3.60539818 9.22578941 -3.60539818 9.22578941 -3.61329651 7.79432678 C-3.61337204 6.93350998 -3.61344757 6.07269318 -3.61352539 5.18579102 C-3.615746 4.42412125 -3.61796661 3.66245148 -3.62025452 2.87770081 C-3.42553146 0.03962645 -2.84164665 0.14208233 0 0 Z " fill="#ffffff" transform="translate(313.5,835.875)"/>
<path d="M0 0 C4.4179275 3.08173614 5.82316789 5.26656709 7.234375 10.55859375 C7.54123865 13.8750955 7.55917694 17.16718996 7.546875 20.49609375 C7.56298828 21.36427734 7.57910156 22.23246094 7.59570312 23.12695312 C7.60073907 29.78951274 6.64462232 34.69642506 2.234375 39.93359375 C-2.5569276 43.82652711 -8.92063542 42.96116257 -14.765625 42.55859375 C-18.13018682 41.59729037 -19.82531707 40.87214891 -21.8671875 38.01977539 C-25.14657144 32.04851165 -25.36974193 26.71597416 -25.265625 19.99609375 C-25.28109375 18.99384766 -25.2965625 17.99160156 -25.3125 16.95898438 C-25.27911744 10.6204709 -24.52937919 6.70608109 -20.765625 1.55859375 C-15.24774662 -2.71776199 -6.16635741 -3.21382187 0 0 Z M-16.765625 6.55859375 C-19.29074951 11.02219767 -19.09835689 15.57345496 -19.078125 20.55859375 C-19.09423828 21.35265625 -19.11035156 22.14671875 -19.12695312 22.96484375 C-19.13177863 28.75545026 -18.01943627 32.05435901 -14.078125 36.43359375 C-10.57081863 38.1398509 -7.36022364 37.78385735 -3.765625 36.55859375 C0.51998201 32.3828741 1.38018886 28.7841711 1.46875 22.90039062 C1.47390625 22.18947266 1.4790625 21.47855469 1.484375 20.74609375 C1.505 20.04677734 1.525625 19.34746094 1.546875 18.62695312 C1.5827399 13.83450651 0.78160978 10.61349972 -1.765625 6.55859375 C-7.12425797 2.43656839 -11.1825323 3.03881792 -16.765625 6.55859375 Z " fill="#ffffff" transform="translate(398.765625,837.44140625)"/>
<path d="M0 0 C2.89621499 0.67673934 3.40567674 1.94113255 4.97265625 4.4609375 C5.89393366 7.08715894 6.70766379 9.65740175 7.453125 12.33203125 C7.77969841 13.47104637 7.77969841 13.47104637 8.11286926 14.6330719 C8.56987949 16.23475172 9.02264947 17.83764676 9.47143555 19.44165039 C10.15768872 21.8896354 10.86001063 24.33258567 11.56445312 26.77539062 C12.00747743 28.33566325 12.44956621 29.89620187 12.890625 31.45703125 C13.09995163 32.18425888 13.30927826 32.91148651 13.52494812 33.66075134 C14.54620446 37.34558199 15.22184284 40.63150538 14.97265625 44.4609375 C12.99265625 44.4609375 11.01265625 44.4609375 8.97265625 44.4609375 C7.65265625 40.1709375 6.33265625 35.8809375 4.97265625 31.4609375 C-1.95734375 30.9659375 -1.95734375 30.9659375 -9.02734375 30.4609375 C-9.73890625 33.3690625 -9.73890625 33.3690625 -10.46484375 36.3359375 C-11.90234375 42.2109375 -11.90234375 42.2109375 -13.02734375 44.4609375 C-15.00734375 44.4609375 -16.98734375 44.4609375 -19.02734375 44.4609375 C-18.4470722 38.85882908 -17.41793591 33.70372917 -15.8125 28.3125 C-15.59669785 27.5738974 -15.38089569 26.8352948 -15.15855408 26.0743103 C-14.70520381 24.52894358 -14.24875131 22.98448377 -13.78930664 21.44091797 C-13.08629515 19.07398994 -12.39708693 16.70333099 -11.70898438 14.33203125 C-11.26514031 12.82527981 -10.82050712 11.31876055 -10.375 9.8125 C-10.16972183 9.10421051 -9.96444366 8.39592102 -9.75294495 7.66616821 C-7.8612126 1.37349277 -6.65194139 0.27353778 0 0 Z M-3.02734375 6.4609375 C-4.67734375 12.7309375 -6.32734375 19.0009375 -8.02734375 25.4609375 C-4.06734375 25.4609375 -0.10734375 25.4609375 3.97265625 25.4609375 C3.32826692 22.85640575 2.68220585 20.2523084 2.03515625 17.6484375 C1.85275391 16.91044922 1.67035156 16.17246094 1.48242188 15.41210938 C0.73039475 12.39032766 -0.04219948 9.41637032 -1.02734375 6.4609375 C-1.68734375 6.4609375 -2.34734375 6.4609375 -3.02734375 6.4609375 Z " fill="#ffffff" transform="translate(690.02734375,835.5390625)"/>
<path d="M0 0 C0.85078125 0.00322266 1.7015625 0.00644531 2.578125 0.00976562 C3.46757813 0.01814453 4.35703125 0.02652344 5.2734375 0.03515625 C6.170625 0.03966797 7.0678125 0.04417969 7.9921875 0.04882812 C10.21100398 0.06063034 12.42968768 0.0770947 14.6484375 0.09765625 C14.6484375 1.74765625 14.6484375 3.39765625 14.6484375 5.09765625 C13.51664063 5.15824219 12.38484375 5.21882812 11.21875 5.28125 C9.73696605 5.36565542 8.2551959 5.45030342 6.7734375 5.53515625 C5.65388672 5.59413086 5.65388672 5.59413086 4.51171875 5.65429688 C0.44856886 5.81339249 0.44856886 5.81339249 -3.3515625 7.09765625 C-3.819889 9.68370957 -3.819889 9.68370957 -3.9765625 12.66015625 C-4.1003125 14.45453125 -4.2240625 16.24890625 -4.3515625 18.09765625 C1.9184375 18.09765625 8.1884375 18.09765625 14.6484375 18.09765625 C14.6484375 19.74765625 14.6484375 21.39765625 14.6484375 23.09765625 C8.3784375 23.09765625 2.1084375 23.09765625 -4.3515625 23.09765625 C-4.0215625 27.71765625 -3.6915625 32.33765625 -3.3515625 37.09765625 C0.20930408 38.28461178 3.62174774 38.44861043 7.3359375 38.66015625 C8.3887793 38.72493164 8.3887793 38.72493164 9.46289062 38.79101562 C11.19118956 38.89682985 12.9197886 38.99772206 14.6484375 39.09765625 C14.6484375 40.74765625 14.6484375 42.39765625 14.6484375 44.09765625 C11.58540172 44.17881618 8.52452935 44.23823034 5.4609375 44.28515625 C4.16446289 44.32286133 4.16446289 44.32286133 2.84179688 44.36132812 C-2.03991472 44.41743975 -5.4188845 44.35255808 -9.3515625 41.09765625 C-10.86380386 38.07317354 -10.5558211 34.92549489 -10.58984375 31.60546875 C-10.5979155 30.86311981 -10.60598724 30.12077087 -10.61430359 29.35592651 C-10.62813967 27.78402032 -10.63886396 26.21208413 -10.64672852 24.64013672 C-10.66394762 22.23867795 -10.7078353 19.83859407 -10.75195312 17.4375 C-10.76207979 15.91016637 -10.77059598 14.38282104 -10.77734375 12.85546875 C-10.79485184 12.1386795 -10.81235992 11.42189026 -10.83039856 10.68338013 C-10.81538085 7.22382725 -10.61581429 5.43427279 -8.44995117 2.67529297 C-5.39693115 0.37993341 -3.75964215 -0.02506428 0 0 Z " fill="#ffffff" transform="translate(517.3515625,835.90234375)"/>
<path d="M0 0 C0.80566406 0.00322266 1.61132812 0.00644531 2.44140625 0.00976562 C3.70404297 0.02233398 3.70404297 0.02233398 4.9921875 0.03515625 C6.26642578 0.04192383 6.26642578 0.04192383 7.56640625 0.04882812 C9.66669659 0.06062751 11.7669508 0.07856319 13.8671875 0.09765625 C14.1971875 1.74765625 14.5271875 3.39765625 14.8671875 5.09765625 C13.91457031 5.14664063 12.96195313 5.195625 11.98046875 5.24609375 C10.72621094 5.32085938 9.47195313 5.395625 8.1796875 5.47265625 C6.31763672 5.57707031 6.31763672 5.57707031 4.41796875 5.68359375 C1.17400978 6.06187719 -1.19848435 6.71745601 -4.1328125 8.09765625 C-4.11753021 10.96878942 -4.11753021 10.96878942 -3.1328125 14.09765625 C-0.38897363 16.31444186 -0.38897363 16.31444186 3.0546875 18.03515625 C13.09975142 23.74485224 13.09975142 23.74485224 15.8671875 29.09765625 C16.47915629 33.0414551 16.25405537 35.20175172 14.6796875 38.84765625 C12.2251651 41.89464957 9.88352103 43.83850911 5.8840332 44.35253906 C3.6210075 44.42826775 1.38056002 44.40872532 -0.8828125 44.34765625 C-1.66269531 44.3425 -2.44257812 44.33734375 -3.24609375 44.33203125 C-8.97818838 44.25228037 -8.97818838 44.25228037 -10.1328125 43.09765625 C-10.17345082 41.4314851 -10.1755335 39.7637753 -10.1328125 38.09765625 C-8.81216797 38.13246094 -8.81216797 38.13246094 -7.46484375 38.16796875 C-5.72267578 38.19503906 -5.72267578 38.19503906 -3.9453125 38.22265625 C-2.22248047 38.25746094 -2.22248047 38.25746094 -0.46484375 38.29296875 C2.78459122 38.10249777 4.95379271 37.49125752 7.8671875 36.09765625 C8.30312 32.11303557 8.30312 32.11303557 6.7265625 28.640625 C3.32381174 25.81691376 -0.49029213 23.58921187 -4.22265625 21.23046875 C-7.67214203 18.70238924 -10.53664263 16.2685369 -11.69921875 12.03515625 C-11.69092285 7.92038818 -11.45948899 6.50170349 -8.7578125 3.16015625 C-5.49781581 0.59873028 -4.04109688 -0.02845843 0 0 Z " fill="#ffffff" transform="translate(573.1328125,835.90234375)"/>
<path d="M0 0 C1.98 0 3.96 0 6 0 C7.12672175 2.39503687 8.25142558 4.7909871 9.375 7.1875 C9.69210937 7.86103516 10.00921875 8.53457031 10.3359375 9.22851562 C10.6453125 9.88916016 10.9546875 10.54980469 11.2734375 11.23046875 C11.55622559 11.83270264 11.83901367 12.43493652 12.13037109 13.05541992 C13.15289951 15.3418991 14.0697756 17.674439 15 20 C17.97 13.4 20.94 6.8 24 0 C26.31 0 28.62 0 31 0 C28.74809594 7.88166422 24.92638464 20.07361536 19 26 C18.84417697 27.34015221 18.74955858 28.68758903 18.68359375 30.03515625 C18.64169922 30.84404297 18.59980469 31.65292969 18.55664062 32.48632812 C18.51732422 33.33646484 18.47800781 34.18660156 18.4375 35.0625 C18.39431641 35.91650391 18.35113281 36.77050781 18.30664062 37.65039062 C18.20023298 39.76672037 18.09958269 41.88333813 18 44 C16.02 44 14.04 44 12 44 C11.96132813 42.15535156 11.96132813 42.15535156 11.921875 40.2734375 C11.86556994 38.64059068 11.80822315 37.00777955 11.75 35.375 C11.73582031 34.56675781 11.72164062 33.75851562 11.70703125 32.92578125 C11.48206316 27.39156622 10.388425 24.52596768 7 20 C5.62226448 17.34645677 4.43603129 14.61865177 3.25 11.875 C2.93417969 11.17246094 2.61835937 10.46992187 2.29296875 9.74609375 C0.75216167 6.21757885 0 3.90677418 0 0 Z " fill="#ffffff" transform="translate(728,836)"/>
<path d="M0 0 C10.56 0 21.12 0 32 0 C32 1.65 32 3.3 32 5 C27.71 5 23.42 5 19 5 C19 17.87 19 30.74 19 44 C17.02 44 15.04 44 13 44 C13 31.13 13 18.26 13 5 C8.71 5 4.42 5 0 5 C0 3.35 0 1.7 0 0 Z " fill="#ffffff" transform="translate(617,836)"/>
<path d="M0 0 C3.49379847 2.04515033 3.91307143 3.76405103 5.3125 7.5625 C6.53208279 13.31504536 6.20683834 19.66344693 4.203125 25.203125 C2.6891122 27.46431295 1.55591176 28.094686 -1 29 C-5.87349688 29.68149713 -9.78196848 29.7208758 -14.0625 27.1875 C-17.49687138 23.30998392 -17.19106722 19.62446376 -17.25 14.625 C-17.27578125 13.31789063 -17.3015625 12.01078125 -17.328125 10.6640625 C-16.9838844 6.82004252 -16.34626005 5.01505381 -14 2 C-9.53979971 -0.97346686 -5.22823659 -0.612316 0 0 Z M-10.66796875 5.046875 C-12.69437081 8.01813902 -12.43443746 11.03281501 -12.375 14.5 C-12.38660156 15.17675781 -12.39820313 15.85351562 -12.41015625 16.55078125 C-12.39292435 19.46297203 -12.33836527 21.50729268 -10.6640625 23.9453125 C-8.0443298 25.60570647 -6.017059 25.37713238 -3 25 C-0.96332385 23.45493534 -0.13926922 22.27853844 1 20 C1.12207871 18.21140489 1.17548448 16.41771619 1.1875 14.625 C1.20167969 13.66851563 1.21585938 12.71203125 1.23046875 11.7265625 C0.99469003 8.93718032 0.51734814 7.33192451 -1 5 C-4.16680814 3.41659593 -7.59543263 3.11844483 -10.66796875 5.046875 Z " fill="#ffffff" transform="translate(655,920)"/>
<path d="M0 0 C3.49379847 2.04515033 3.91307143 3.76405103 5.3125 7.5625 C6.53208279 13.31504536 6.20683834 19.66344693 4.203125 25.203125 C2.6891122 27.46431295 1.55591176 28.094686 -1 29 C-5.87349688 29.68149713 -9.78196848 29.7208758 -14.0625 27.1875 C-17.49687138 23.30998392 -17.19106722 19.62446376 -17.25 14.625 C-17.27578125 13.31789063 -17.3015625 12.01078125 -17.328125 10.6640625 C-16.9838844 6.82004252 -16.34626005 5.01505381 -14 2 C-9.53979971 -0.97346686 -5.22823659 -0.612316 0 0 Z M-10.66796875 5.046875 C-12.69437081 8.01813902 -12.43443746 11.03281501 -12.375 14.5 C-12.38660156 15.17675781 -12.39820313 15.85351562 -12.41015625 16.55078125 C-12.39292435 19.46297203 -12.33836527 21.50729268 -10.6640625 23.9453125 C-8.0443298 25.60570647 -6.017059 25.37713238 -3 25 C-0.96332385 23.45493534 -0.13926922 22.27853844 1 20 C1.12207871 18.21140489 1.17548448 16.41771619 1.1875 14.625 C1.20167969 13.66851563 1.21585938 12.71203125 1.23046875 11.7265625 C0.99469003 8.93718032 0.51734814 7.33192451 -1 5 C-4.16680814 3.41659593 -7.59543263 3.11844483 -10.66796875 5.046875 Z " fill="#ffffff" transform="translate(623,920)"/>
<path d="M0 0 C2.3925 -0.0825 4.785 -0.165 7.25 -0.25 C7.99668945 -0.28641602 8.74337891 -0.32283203 9.51269531 -0.36035156 C12.88963908 -0.41666423 14.69032075 -0.22902324 17.4296875 1.796875 C19.60943673 4.85503064 19.86712564 7.279518 20 11 C18.97113469 14.08659593 17.29104548 15.75930717 15 18 C15.433125 18.62648438 15.86625 19.25296875 16.3125 19.8984375 C16.869375 20.71570313 17.42625 21.53296875 18 22.375 C18.556875 23.18710937 19.11375 23.99921875 19.6875 24.8359375 C21 27 21 27 21 29 C18.73828125 29.3046875 18.73828125 29.3046875 16 29 C13.98046875 26.8828125 13.98046875 26.8828125 12.1875 24.125 C11.58292969 23.22007812 10.97835938 22.31515625 10.35546875 21.3828125 C9 19 9 19 9 17 C7.35 17 5.7 17 4 17 C4 20.96 4 24.92 4 29 C2.68 29 1.36 29 0 29 C0 19.43 0 9.86 0 0 Z M4 4 C4 7.3 4 10.6 4 14 C5.44375 13.87625 6.8875 13.7525 8.375 13.625 C9.18710937 13.55539062 9.99921875 13.48578125 10.8359375 13.4140625 C13.20334191 13.17107412 13.20334191 13.17107412 15 11 C15.33333333 8.5 15.33333333 8.5 15 6 C13.21342243 3.78629949 13.21342243 3.78629949 10.8359375 3.8046875 C7.41796875 3.90234375 7.41796875 3.90234375 4 4 Z " fill="#ffffff" transform="translate(404,920)"/>
<path d="M0 0 C0.94875 0.04125 1.8975 0.0825 2.875 0.125 C5.85757662 5.46318518 7.43521086 11.00068709 9.0625 16.875 C9.33513672 17.83277344 9.60777344 18.79054688 9.88867188 19.77734375 C11.875 26.83652491 11.875 26.83652491 11.875 29.125 C10.225 29.125 8.575 29.125 6.875 29.125 C6.215 26.155 5.555 23.185 4.875 20.125 C1.575 20.125 -1.725 20.125 -5.125 20.125 C-5.785 23.095 -6.445 26.065 -7.125 29.125 C-8.775 29.125 -10.425 29.125 -12.125 29.125 C-10.99767566 22.66850608 -9.4427739 16.41586483 -7.625 10.125 C-7.41141846 9.370979 -7.19783691 8.61695801 -6.9777832 7.84008789 C-4.72418677 0.18896747 -4.72418677 0.18896747 0 0 Z M-1.125 4.125 C-2.115 8.085 -3.105 12.045 -4.125 16.125 C-1.485 16.125 1.155 16.125 3.875 16.125 C3.42649342 14.31004338 2.96590429 12.49806866 2.5 10.6875 C2.11714844 9.17349609 2.11714844 9.17349609 1.7265625 7.62890625 C1.14926046 4.96929676 1.14926046 4.96929676 -1.125 4.125 Z " fill="#ffffff" transform="translate(489.125,919.875)"/>
<path d="M0 0 C6.73288758 0.06856301 6.73288758 0.06856301 10.625 2.375 C12.88651355 6.55010194 12.92423269 8.65537115 12.25 13.375 C10.9375 15.875 10.9375 15.875 8.25 17.375 C4.51593557 17.69736527 1.01274489 17.55417833 -2.75 17.375 C-2.75 21.335 -2.75 25.295 -2.75 29.375 C-4.4 29.375 -6.05 29.375 -7.75 29.375 C-7.77465881 25.40569011 -7.79284023 21.43640966 -7.80493164 17.46704102 C-7.80997057 16.11579614 -7.81680177 14.76455674 -7.82543945 13.41333008 C-7.83752419 11.47479566 -7.84269828 9.536222 -7.84765625 7.59765625 C-7.85289307 6.42984619 -7.85812988 5.26203613 -7.86352539 4.05883789 C-7.64675569 -1.06578426 -4.49028358 0.12110723 0 0 Z M-2.75 3.375 C-2.75 7.005 -2.75 10.635 -2.75 14.375 C0.55 13.715 3.85 13.055 7.25 12.375 C7.25 10.065 7.25 7.755 7.25 5.375 C3.44956554 3.63765853 1.65285423 3.375 -2.75 3.375 Z " fill="#ffffff" transform="translate(584.75,919.625)"/>
<path d="M0 0 C6.73288758 0.06856301 6.73288758 0.06856301 10.625 2.375 C12.88651355 6.55010194 12.92423269 8.65537115 12.25 13.375 C10.9375 15.875 10.9375 15.875 8.25 17.375 C4.51593557 17.69736527 1.01274489 17.55417833 -2.75 17.375 C-2.75 21.335 -2.75 25.295 -2.75 29.375 C-4.4 29.375 -6.05 29.375 -7.75 29.375 C-7.77465881 25.40569011 -7.79284023 21.43640966 -7.80493164 17.46704102 C-7.80997057 16.11579614 -7.81680177 14.76455674 -7.82543945 13.41333008 C-7.83752419 11.47479566 -7.84269828 9.536222 -7.84765625 7.59765625 C-7.85289307 6.42984619 -7.85812988 5.26203613 -7.86352539 4.05883789 C-7.64675569 -1.06578426 -4.49028358 0.12110723 0 0 Z M-2.75 3.375 C-2.75 7.005 -2.75 10.635 -2.75 14.375 C0.55 13.715 3.85 13.055 7.25 12.375 C7.25 10.065 7.25 7.755 7.25 5.375 C3.44956554 3.63765853 1.65285423 3.375 -2.75 3.375 Z " fill="#ffffff" transform="translate(381.75,919.625)"/>
<path d="M0 0 C2.475 0.495 2.475 0.495 5 1 C5.176521 1.63091553 5.35304199 2.26183105 5.53491211 2.91186523 C6.33235758 5.75471508 7.13485868 8.59611298 7.9375 11.4375 C8.21529297 12.43072266 8.49308594 13.42394531 8.77929688 14.44726562 C9.18051758 15.86362305 9.18051758 15.86362305 9.58984375 17.30859375 C9.83597412 18.18314209 10.08210449 19.05769043 10.33569336 19.95874023 C10.81995794 21.97114846 10.81995794 21.97114846 12 23 C12.176521 22.3387915 12.35304199 21.67758301 12.53491211 20.99633789 C13.33227353 18.01744177 14.13481489 15.03996581 14.9375 12.0625 C15.21529297 11.02158203 15.49308594 9.98066406 15.77929688 8.90820312 C16.04677734 7.91884766 16.31425781 6.92949219 16.58984375 5.91015625 C16.83597412 4.99371338 17.08210449 4.07727051 17.33569336 3.13305664 C18 1 18 1 19 0 C20.66617115 -0.04063832 22.33388095 -0.042721 24 0 C22.88170967 4.08520129 21.75421293 8.16780563 20.625 12.25 C20.30789063 13.40886719 19.99078125 14.56773437 19.6640625 15.76171875 C19.3546875 16.87675781 19.0453125 17.99179687 18.7265625 19.140625 C18.30238037 20.68024902 18.30238037 20.68024902 17.86962891 22.25097656 C17.10397487 24.6713203 16.21343286 26.77769767 15 29 C12.69 29 10.38 29 8 29 C6.84142571 25.67096068 5.70052081 22.33611579 4.5625 19 C4.23701172 18.06542969 3.91152344 17.13085938 3.57617188 16.16796875 C1.73338447 10.73459558 0.47900845 5.72111507 0 0 Z " fill="#ffffff" transform="translate(449,920)"/>
<path d="M0 0 C1.28132812 0.00902344 2.56265625 0.01804687 3.8828125 0.02734375 C5.36394531 0.04474609 5.36394531 0.04474609 6.875 0.0625 C6.875 1.3825 6.875 2.7025 6.875 4.0625 C0.935 4.5575 0.935 4.5575 -5.125 5.0625 C-5.455 7.3725 -5.785 9.6825 -6.125 12.0625 C-1.835 12.0625 2.455 12.0625 6.875 12.0625 C6.875 13.0525 6.875 14.0425 6.875 15.0625 C2.585 15.0625 -1.705 15.0625 -6.125 15.0625 C-5.795 18.0325 -5.465 21.0025 -5.125 24.0625 C-1.165 24.3925 2.795 24.7225 6.875 25.0625 C6.875 26.3825 6.875 27.7025 6.875 29.0625 C4.60475032 29.14347324 2.33367925 29.20167704 0.0625 29.25 C-1.83435547 29.30220703 -1.83435547 29.30220703 -3.76953125 29.35546875 C-7.125 29.0625 -7.125 29.0625 -9.01171875 27.67578125 C-11.86112681 23.54663905 -11.30889835 19.55692453 -11.3125 14.6875 C-11.32474609 13.82382812 -11.33699219 12.96015625 -11.34960938 12.0703125 C-11.35154297 11.235 -11.35347656 10.3996875 -11.35546875 9.5390625 C-11.36163208 8.3955835 -11.36163208 8.3955835 -11.36791992 7.22900391 C-11.09087619 4.75816359 -10.43586798 3.16668949 -9.125 1.0625 C-6.12186252 -0.43906874 -3.33432478 -0.03031204 0 0 Z " fill="#ffffff" transform="translate(545.125,919.9375)"/>
<path d="M0 0 C7.26 0 14.52 0 22 0 C22 0.99 22 1.98 22 3 C19.36 3 16.72 3 14 3 C14 11.58 14 20.16 14 29 C12.35 29 10.7 29 9 29 C9 20.42 9 11.84 9 3 C6.03 3 3.06 3 0 3 C0 2.01 0 1.02 0 0 Z " fill="#ffffff" transform="translate(504,920)"/>
<path d="M0 0 C1.32 0 2.64 0 4 0 C4.33 8.25 4.66 16.5 5 25 C8.96 25 12.92 25 17 25 C17 26.32 17 27.64 17 29 C14.72975032 29.08097324 12.45867925 29.13917704 10.1875 29.1875 C8.29064453 29.23970703 8.29064453 29.23970703 6.35546875 29.29296875 C3 29 3 29 1.30859375 27.85546875 C-0.5620592 25.20305038 -0.34011689 23.24132113 -0.29296875 20.01953125 C-0.28330078 18.85615234 -0.27363281 17.69277344 -0.26367188 16.49414062 C-0.2259668 14.67172852 -0.2259668 14.67172852 -0.1875 12.8125 C-0.17396484 11.58595703 -0.16042969 10.35941406 -0.14648438 9.09570312 C-0.11108741 6.06336336 -0.0617076 3.03190004 0 0 Z " fill="#ffffff" transform="translate(671,920)"/>
<path d="M0 0 C1.32 0 2.64 0 4 0 C4 9.57 4 19.14 4 29 C2.68 29 1.36 29 0 29 C0 19.43 0 9.86 0 0 Z " fill="#ffffff" transform="translate(435,920)"/>
</svg>
